<?xml version="1.0" encoding="UTF-8"?>
<!DOCTYPE svg PUBLIC "-//W3C//DTD SVG 1.1//EN" "http://www.w3.org/Graphics/SVG/1.1/DTD/svg11.dtd">
<!-- Creator: CorelDRAW 2018 (64-Bit) -->
<svg xmlns="http://www.w3.org/2000/svg" xml:space="preserve" width="180.282mm" height="180.005mm" version="1.1" style="shape-rendering:geometricPrecision; text-rendering:geometricPrecision; image-rendering:optimizeQuality; fill-rule:evenodd; clip-rule:evenodd"
viewBox="0 0 19047.6 19018.4"
 xmlns:xlink="http://www.w3.org/1999/xlink">
 <defs>
  <style type="text/css">
   <![CDATA[
    .fil0 {fill:#0163b4}
   ]]>
  </style>
 </defs>
 <g id="Layer_x0020_1">
  <metadata id="CorelCorpID_0Corel-Layer"/>
  <g id="_2254593669344">
   <path class="fil0" d="M2194.93 5179.13l1012.24 -215.45c1118.3,-264.62 1058.87,-245.51 1198.78,-1256.57l132.73 -1132.14c287.94,67.08 555.11,111.4 871.4,170.27 1323.27,246.28 1145.7,420.7 2032.46,-1061.06 68,-113.63 263.71,-403.7 295.55,-522.91 144.93,38.7 678.78,453.12 847.88,565.81 597.45,398.14 831.13,722.89 1437.24,305.62 206.08,-141.88 1138.73,-832.02 1286.3,-871.43l574.14 988.36c583.58,970.38 607.1,816.99 1722.69,601.63 289.36,-55.86 610.57,-108.26 902.58,-176.3l122.8 1104.87c48.82,369.75 41.98,719.9 274.87,952.79 213.18,213.18 578.25,240.62 904.4,323.28 169.21,42.89 333.58,73.61 513.65,118.79 133.66,33.52 360.26,100.69 528.02,104.43 -311.52,1337.12 -878.54,1847.21 -117.48,2461.22 61.29,49.45 132.92,97.19 192.28,142.54l562.78 441.69c145.6,108.47 255.42,203.22 404.08,302.76 -183.74,347.26 -1157.79,1266.97 -1206.47,1617.5 -24.22,174.39 53.03,409.63 128.59,539.25 93.2,159.88 709.8,1234.69 743.06,1377.47 -149.86,34.91 -279.51,122.92 -408.67,186.55 -143.98,70.94 -279.65,119.61 -434.65,197.8 -163.56,82.51 -257.57,125.79 -432.32,200.12 -669.07,284.58 -617.74,514.05 -583.78,1200.54 6.64,134.19 29.23,422.14 52.21,580.23 7.84,53.92 59.45,573.71 59.39,574.05 -27.07,174.73 -272.86,112.03 -484.27,111.34 -1657.65,-5.41 -1628.52,-128.26 -2032.21,1092.79l-311.59 953.29c-282.65,-65.85 -1553.91,-706.85 -1822.91,-706.85 -401.2,0 -663.4,422.93 -883.53,641.78 -138.38,137.57 -237.22,225.36 -359.86,384.19 -99.94,129.44 -268.84,304.23 -393.52,387.72 -122.15,-81.8 -276.89,-244.74 -381.04,-363.01l-372.31 -408.94c-753.24,-751.93 -532.48,-828.29 -1808.32,-301.63 -142.38,58.78 -288.22,120.69 -446.8,185.64 -130.68,53.52 -301.04,146.08 -451.35,181.1l-301.94 -925.74c-448.28,-1341.49 -381.01,-1099.86 -2306.52,-1116.14 -221.04,-1.86 -268.82,76.68 -171.45,-663.63 73.57,-559.36 197.18,-1267.61 -118.68,-1575.97 -164.97,-161.04 -955.23,-471.22 -1243.55,-616.57 -136.74,-68.93 -291.55,-165.56 -433.75,-198.68 96.42,-413.86 855.66,-1286.03 855.66,-1860.13 0,-309.58 -324.93,-603.85 -546.52,-867.16 -114.43,-135.97 -202.12,-257.2 -318.72,-388.12l-325.24 -418.82c299.74,-200.72 1374.88,-1029.66 1477.76,-1238.1 188.37,-381.7 -137.28,-1045.85 -279.41,-1559.95l-156.69 -550.15zm7496.12 13839.27l-325.71 0c-206.66,-26.79 -408.79,-104.93 -571.21,-237.59l-1018.84 -1101.69c-336.63,178.11 -1414.16,632.44 -1711.31,632.44 -901.42,0 -1062.93,-780.66 -1279.26,-1399.31 -73.29,-209.59 -161.61,-444.13 -208.84,-646.82 -478.62,0 -820.56,-36.37 -1303.4,-35.88 -410.2,0.41 -730.52,-151.29 -914,-388.09 -466.72,-602.37 -163.55,-1114.9 -163.55,-2217.4 -130.62,-30.43 -184.64,-79.45 -313.36,-133.07 -125.59,-52.31 -177.98,-74.66 -282.01,-127.2 -683.54,-345.21 -1264.74,-441.19 -1264.74,-1376.64 0,-497.73 673.31,-1269.84 781.25,-1674.1 -357.65,-534.11 -1116.07,-1153.93 -1116.07,-1674.11 0,-663.09 198.43,-782.72 620.87,-1127.63l867.22 -695.28c-191.03,-820 -822,-1864.78 -80.86,-2461.81 443.36,-357.14 1183.3,-378.13 1730.19,-539.16 136.72,-40.25 116.7,-14.65 138.47,-159.15 75.21,-499.11 69.75,-1285.62 296.33,-1675.39 386.09,-664.16 1012.2,-554.01 1589.59,-437.92l939.38 176.7c190.33,-359.7 398.12,-669.21 611.31,-1025.59 915.69,-1530.71 2076.71,-107.16 2811.3,281.54l1191.17 -817.75c461.48,-283.61 1118.47,-160.19 1443.28,266.64l788.17 1295.16 970.35 -182.91c587.08,-117.91 1202.13,-205.63 1585.71,491.42 148.28,269.45 208.67,1078.5 254.82,1456.49 33.78,276.73 -52.07,283.31 214.35,343.67 324.04,73.42 595.5,126.81 911.1,204.97 151.76,37.59 326.65,76.17 459.65,135.59 104.68,46.77 255.31,151.83 334.38,223.67 750.75,682.18 -64.14,1822.53 -117.28,2461.02 137.62,72.82 119.54,76.02 239,170.23 78.88,62.22 140.69,102 212.56,159.46 149.46,119.53 286.6,226.18 436.49,344.75 362.08,286.41 600.04,469.16 600.04,1036.86 0,726.98 -1089.42,1513.38 -1116.07,1748.51 -16.43,144.97 781.25,1200.61 781.25,1711.31 0,883.88 -651.1,1030.18 -1289.41,1351.96l-570.7 247.74c0,432.4 35.36,845.14 80.45,1259.07 59.73,548.54 -117.66,1040.77 -652.84,1256.33 -312.84,126 -1434.29,125.97 -1808.56,125.97 -46.65,200.23 -149.79,485.53 -223.22,669.64 -119.44,299.46 -197.52,684.62 -391.54,947.74 -517.89,702.32 -1259.41,363.21 -1776.52,141.44 -152.9,-65.58 -260.72,-107.77 -420.41,-174.83 -131.86,-55.36 -276.77,-111.6 -387.72,-170.3l-951.98 1019.74c-5.37,5.45 -13.21,13.19 -18.69,18.52 -5.47,5.34 -13.56,12.82 -19.13,18.06 -30.62,28.77 -70.3,64.24 -99.13,86.9 -134.26,105.57 -307.4,171.73 -492.33,196.06z"/>
   <path class="fil0" d="M9375 5923.17c1088.95,0 1808.13,204.08 2595.5,901.51 316.67,280.5 595.92,605.86 795.72,990 512.46,985.22 588.9,2245.25 93.87,3230.5 -1211.17,2410.63 -4155.22,2715.64 -5800.98,1062.93 -483.16,-485.2 -809.97,-1013.58 -980.89,-1697.68 -179.6,-718.89 -125.82,-1591.62 160.4,-2266.48 89.21,-210.36 202.04,-400.78 310.53,-582.33 537.37,-899.23 1769.42,-1638.44 2825.84,-1638.44zm-4538.69 3348.21c0,1179.47 215.44,2109.44 887.06,3019.2 81.24,110.04 167.15,236.86 257.12,338.11 827.21,930.86 2014.71,1610.02 3585.26,1649.42 1186.15,29.75 2464.14,-499.55 3296.98,-1332.99 327.8,-328.04 252.81,-229.87 540.98,-612.29 489.28,-649.29 919.21,-1674.56 919.21,-2577.81 0,-899.14 -62.56,-1501.78 -470.81,-2319.37 -816.39,-1634.95 -2459.42,-2665.74 -4328.29,-2665.74 -1122.68,0 -2111.32,424.7 -2923.83,1056.82 -365.22,284.14 -372.2,359.83 -582.31,570.97 -656.53,659.76 -1181.37,1982.58 -1181.37,2873.69z"/>
   <path class="fil0" d="M8742.55 10238.65c-412.58,-276.29 -475.92,-744.05 -1078.86,-744.05 -233.39,0 -483.63,254.14 -483.63,595.24 0,305.66 476.04,680.65 660.34,864.95 1054.16,1054.16 905.14,899.17 2604.17,-799.85l1172.04 -1171.71c762.01,-752.4 -170.77,-1446.13 -707.52,-893.53l-929.55 930.58c-213.7,213.7 -400.15,400.14 -613.84,613.83 -162.39,162.4 -458.94,494.59 -623.14,604.55z"/>
  </g>
 </g>
</svg>
