<svg width="60" height="60" fill="none" xmlns="http://www.w3.org/2000/svg"><path d="M35 60H25a1.25 1.25 0 0 1-1.25-1.25v-7.155a22.26 22.26 0 0 1-4.599-1.907L14.09 54.75a1.25 1.25 0 0 1-1.768 0L5.25 47.678a1.25 1.25 0 0 1 0-1.768l5.063-5.061c-.806-1.457-1.446-3-1.908-4.599H1.25A1.25 1.25 0 0 1 0 35V25a1.25 1.25 0 0 1 1.25-1.25h7.155a22.26 22.26 0 0 1 1.908-4.599L5.25 14.09a1.25 1.25 0 0 1 0-1.768l7.072-7.072a1.25 1.25 0 0 1 1.768 0l5.061 5.063c1.457-.806 3-1.446 4.599-1.908V1.25A1.25 1.25 0 0 1 25 0h10a1.25 1.25 0 0 1 1.25 1.25v7.155c1.6.462 3.142 1.102 4.599 1.908L45.91 5.25a1.25 1.25 0 0 1 1.768 0l7.072 7.072a1.25 1.25 0 0 1 0 1.768l-5.063 5.061a22.26 22.26 0 0 1 1.908 4.599h7.155A1.25 1.25 0 0 1 60 25v10a1.25 1.25 0 0 1-1.25 1.25h-7.155a22.237 22.237 0 0 1-1.907 4.599l5.062 5.061a1.25 1.25 0 0 1 0 1.768l-7.072 7.072a1.25 1.25 0 0 1-1.768 0l-5.061-5.063c-1.457.806-3 1.446-4.599 1.908v7.155A1.25 1.25 0 0 1 35 60zm-8.75-2.5h7.5v-6.866a1.25 1.25 0 0 1 .956-1.215 19.875 19.875 0 0 0 5.695-2.361 1.25 1.25 0 0 1 1.535.182l4.858 4.857 5.303-5.303-4.857-4.858a1.25 1.25 0 0 1-.183-1.536 19.801 19.801 0 0 0 2.362-5.694 1.25 1.25 0 0 1 1.215-.956H57.5v-7.5h-6.866a1.25 1.25 0 0 1-1.215-.956 19.877 19.877 0 0 0-2.361-5.695 1.25 1.25 0 0 1 .182-1.535l4.857-4.858-5.303-5.303-4.858 4.857a1.25 1.25 0 0 1-1.536.183 19.798 19.798 0 0 0-5.694-2.362 1.25 1.25 0 0 1-.956-1.215V2.5h-7.5v6.866a1.25 1.25 0 0 1-.956 1.215 19.798 19.798 0 0 0-5.694 2.362 1.25 1.25 0 0 1-1.536-.183l-4.858-4.857-5.303 5.303 4.857 4.858a1.25 1.25 0 0 1 .183 1.535 19.874 19.874 0 0 0-2.362 5.695 1.25 1.25 0 0 1-1.215.956H2.5v7.5h6.866a1.25 1.25 0 0 1 1.215.956 19.798 19.798 0 0 0 2.362 5.694 1.25 1.25 0 0 1-.183 1.536l-4.857 4.858 5.303 5.303 4.858-4.857a1.25 1.25 0 0 1 1.535-.183 19.877 19.877 0 0 0 5.695 2.362 1.25 1.25 0 0 1 .956 1.215V57.5z" fill="#0163b4"/><path d="M43.75 35h-10v-2.5h8.75v-2.113a12.782 12.782 0 0 0-10.441-12.723A12.508 12.508 0 0 0 17.5 30v2.5h8.75V35h-10A1.25 1.25 0 0 1 15 33.75V30a15.008 15.008 0 0 1 17.451-14.805A15.3 15.3 0 0 1 45 30.387v3.363A1.25 1.25 0 0 1 43.75 35z" fill="#0163b4"/><path d="M31.25 35h-2.5v-5.733l-4.634-4.633 1.768-1.768 5 5c.234.235.366.553.366.884V35zm-10 2.5h-2.5V40h2.5v-2.5zm5 0h-2.5V40h2.5v-2.5zm15 0h-10V40h10v-2.5z" fill="#0163b4"/></svg>