<svg width="60" height="60" fill="none" xmlns="http://www.w3.org/2000/svg"><g clip-path="url(#clip0)" fill="#0163b4"><path d="M40 36.25h-5A1.25 1.25 0 0 1 33.75 35V9.664A2.5 2.5 0 0 1 32.5 7.5v-5A2.5 2.5 0 0 1 35 0h5a2.5 2.5 0 0 1 2.5 2.5v5a2.5 2.5 0 0 1-1.25 2.164V35A1.25 1.25 0 0 1 40 36.25zm-3.75-2.5h2.5v-25A1.25 1.25 0 0 1 40 7.5v-5h-5v5a1.25 1.25 0 0 1 1.25 1.25v25zM2.5 12.5H0v35h2.5v-35z"/><path d="M8.75 56.25a8.75 8.75 0 1 1 8.75-8.75H15a6.25 6.25 0 1 0-6.25 6.25v2.5z"/><path d="M27.5 53.75H8.75v2.5H27.5v-2.5zm23.75 2.5H47.5v-2.5h3.75a6.257 6.257 0 0 0 6.25-6.25v-35H45V10h13.75A1.25 1.25 0 0 1 60 11.25V47.5a8.76 8.76 0 0 1-8.75 8.75zM30 10h-8.75v2.5H30V10zM17.5 36.25H15V12.5a6.25 6.25 0 0 0-12.5 0H0a8.75 8.75 0 0 1 17.5 0v23.75zM40 60h-5a1.25 1.25 0 0 1-1.25-1.25V55h2.5v2.5h2.5V55h2.5v3.75A1.25 1.25 0 0 1 40 60z"/><path d="M42.5 56.25h-10A1.25 1.25 0 0 1 31.25 55V41.25h-2.5A1.25 1.25 0 0 1 27.5 40v-5a1.25 1.25 0 0 1 1.25-1.25h17.5A1.25 1.25 0 0 1 47.5 35v5a1.25 1.25 0 0 1-1.25 1.25h-2.5V55a1.25 1.25 0 0 1-1.25 1.25zm-8.75-2.5h7.5V40a1.25 1.25 0 0 1 1.25-1.25H45v-2.5H30v2.5h2.5A1.25 1.25 0 0 1 33.75 40v13.75z"/><path d="M38.75 38.75H32.5v2.5h6.25v-2.5zm0 5h-2.5v2.5h2.5v-2.5zm0 5h-2.5v2.5h2.5v-2.5z"/></g><defs><clipPath id="clip0"><path fill="#fff" d="M0 0h60v60H0z"/></clipPath></defs></svg>