<?xml version="1.0" encoding="UTF-8"?>
<!DOCTYPE svg PUBLIC "-//W3C//DTD SVG 1.1//EN" "http://www.w3.org/Graphics/SVG/1.1/DTD/svg11.dtd">
<!-- Creator: CorelDRAW 2018 (64-Bit) -->
<svg xmlns="http://www.w3.org/2000/svg" xml:space="preserve" width="126.269mm" height="75.9259mm" version="1.1" style="shape-rendering:geometricPrecision; text-rendering:geometricPrecision; image-rendering:optimizeQuality; fill-rule:evenodd; clip-rule:evenodd"
viewBox="0 0 14056.52 8452.23"
 xmlns:xlink="http://www.w3.org/1999/xlink">
 <defs>
  <style type="text/css">
   <![CDATA[
    .fil0 {fill:#0163b4}
   ]]>
  </style>
 </defs>
 <g id="Layer_x0020_1">
  <metadata id="CorelCorpID_0Corel-Layer"/>
  <g id="_2254593679648">
   <path class="fil0" d="M6370.01 2709.42c26.37,-39.4 36.95,-59.74 73.83,-102.86 42.7,-49.94 20.31,-73.84 102.87,-73.84l1590.31 0 0 1590.31c0,213.66 233.99,359.21 563.94,-54.51 119.42,-149.75 798.1,-902.27 908.58,-976.24 274.72,201.28 976.11,1236.91 1236.91,1236.91 178.49,0 235.6,-92.73 235.6,-353.4l0 -1443.07 2503.27 0 0 5448.31 -8010.47 0 0 -1001.31c198.01,52.87 194.6,235.6 471.2,235.6 162.39,0 765.71,-603.32 765.71,-765.71 0,-180.06 -334.6,-517.34 -441.75,-677.36 27.84,-104.28 155.05,-290.96 202.19,-416.26 176.14,-468.07 22.78,-384.8 477.66,-435.29 649.82,-72.15 557.06,-88 557.06,-1033.27 0,-239.36 -188.27,-279.81 -344,-303.92 -150.5,-23.29 -404.78,-65.27 -568.97,-78.93 -9.43,-113.37 -90.44,-326.84 -136.94,-422.62 -34,-70.07 -52.89,-107.33 -88.58,-176.47l-98.43 -196.07zm2208.76 765.71l0 -3003.93 2002.62 0 0 3003.93c-284.73,-190.66 -795.92,-971.85 -1001.31,-971.85 -154.57,0 -204.08,97.35 -277.55,193.66 -81.74,107.14 -157.4,153.38 -240.13,260.52l-483.63 517.68zm-7244.77 -1443.06l272.03 -258.08c531.73,332.72 442.67,573.9 877.88,318.31 333.89,-196.08 487.61,-209.94 828.14,-320.42 251.83,-81.7 220.99,-232.77 258.55,-507.17 56.1,-409.92 -41.17,-351.76 413.94,-351.76 158.81,681.65 -38.41,766.07 435.7,889.55 140.89,36.7 346.86,109.65 477.32,170.59 633.2,295.82 203.57,406.94 1119.05,-206.09l241.85 258.92c-31.46,100.52 -146.52,218.22 -206.57,306.46 -306.74,450.72 -271.08,257.58 -5.8,789.3 400.28,802.33 25.15,781.38 737.82,881.94 120.01,16.93 183.75,31.06 322.36,31.06 0,491.34 71.67,386.32 -351.87,443.28 -425.82,57.26 -439.09,64.63 -525.34,417.07 -129.92,530.87 -441,748.15 -354.89,987.86 28.45,79.24 133.06,200.84 192.95,280.59 74.39,99.07 151.35,191.76 214.54,286.12l-272.03 258.07c-783.96,-506.92 -415.32,-563.55 -1082.54,-228.48 -597.4,299.99 -785.13,133.99 -851.67,473.59 -38.27,195.31 -47.7,401.14 -90.88,586.48 -442.75,0 -357.28,69.08 -410.68,-325.57 -31.48,-232.62 -20.08,-435.88 -217.95,-518.32 -102.97,-42.9 -291.15,-65.78 -558.35,-177.92 -183.92,-77.18 -368.03,-244.55 -550.59,-244.55 -156.94,0 -520.09,326.7 -647.91,412.3l-258.08 -272.04c32.91,-52.58 66.2,-81.13 111.14,-139.95 477.47,-625.01 364.67,-404.37 106.84,-932.08 -292.35,-598.36 -92.43,-768.06 -462.93,-832.88 -196.58,-34.4 -402.36,-47.8 -586.63,-90.73l0 -382.85c638,-148.64 774.01,31.66 871.87,-423.94 185.95,-865.65 664.96,-691.62 197.5,-1263.9 -44.55,-54.53 -69.89,-92.23 -114.07,-150.99 -55.51,-73.78 -87.47,-99.25 -130.69,-163.8zm9718.59 -1560.87l2503.28 0 0 1560.87 -2503.28 0 0 -1560.87zm-5477.75 1001.31l0 -1001.31 2532.72 0 0 1560.87 -1325.26 0c-4.83,-216.77 -276.97,-405.2 -507.73,-640.85 -380.76,-388.8 -419.67,6.5 -699.74,81.29zm-471.2 88.36c-182.07,-96.35 -412.69,-142.31 -589.01,-235.6 0,-218.9 -37.62,-365.41 -57.69,-560.77 -43.54,-423.66 -321.4,-322.73 -1031.97,-322.73 -208.92,0 -245.01,153.29 -274.36,344.09 -22.71,147.59 -66.24,414.9 -79.04,568.87 -230.82,5.14 -522.64,173.81 -679.11,266.62 -265.66,157.58 -580.48,-475.74 -887.06,-391.8 -114.51,31.35 -395.19,364.4 -502.74,471.19 -448.72,445.59 -47.12,460.43 242.99,1008.7 -74.44,111.16 -133.85,228.74 -196.72,362.84 -67.15,143.28 -93.73,301.1 -156.69,432.32 -216.66,0 -365.33,33.36 -559.08,59.38 -416.96,55.98 -324.43,263.43 -324.43,971.37 0,211.78 104.35,330.87 294.93,352.98 208.22,24.15 365.8,59.32 588.58,59.32 35.12,73.22 38.09,109.91 65.68,199.37 61.74,200.19 173.44,425.14 287.72,595.8 -62.06,117.28 -135.13,199.79 -218.76,311.35 -355.95,474.83 -289.15,432.39 137.76,859.3 538.01,538.01 386.57,375.17 1111.75,-110.43 146.47,39.11 320.85,213.45 795.16,323.95 12.71,152.88 67.91,704.52 158.67,813.19 130.11,155.73 570.43,99.78 872.09,99.78 241.1,0 319.37,-91.14 349.82,-298.1 29.5,-200.56 62.49,-368.6 62.49,-585.41 92.7,-44.48 198.26,-64.69 303.15,-109.16 96.38,-40.87 203.45,-82.85 285.85,-126.44 0,294.49 0.01,589.01 0,883.51 -0.01,303.81 -70.36,647.91 235.6,647.91l8540.58 0c70.91,0 176.7,-105.79 176.7,-176.7l0 -8098.83c0,-70.91 -105.79,-176.7 -176.7,-176.7l-8540.58 0c-298.82,0 -235.64,349.04 -235.6,647.91 0.03,304.32 0,608.64 0,912.96z"/>
   <path class="fil0" d="M2423.67 4240.84c0,-1173.83 1409.32,-1850.11 2320.18,-994.92 524.84,492.76 560.07,1365.77 29.46,1930.94 -79.9,85.09 -279.66,229.17 -396.77,280.59 -401.07,176.1 -725.74,179.42 -1124.93,16.99 -286.58,-116.61 -563.37,-376.88 -689.82,-664.89 -60.66,-138.14 -138.11,-386.84 -138.11,-568.7zm-471.2 -29.44c0,581.39 267.22,1046.46 577.76,1336.5 1270.88,1186.99 3103.52,163.64 3103.52,-1307.06 0,-1697.84 -2202.12,-2595.59 -3324.3,-1086.08 -58.22,78.32 -139.84,202.94 -180.66,290.54 -78.68,168.88 -176.31,518.86 -176.31,766.1z"/>
  </g>
 </g>
</svg>
