<svg width="60" height="60" fill="none" xmlns="http://www.w3.org/2000/svg"><g clip-path="url(#clip0)" fill="#0163b4"><path d="M58.75 56.25h-10v-2.5h8.75v-12.5h-8.75v-2.5h10A1.25 1.25 0 0 1 60 40v15a1.25 1.25 0 0 1-1.25 1.25zm-47.5 0h-10A1.25 1.25 0 0 1 0 55V40a1.25 1.25 0 0 1 1.25-1.25h10v2.5H2.5v12.5h8.75v2.5zM42.5 60h-25a1.25 1.25 0 0 1-.884-.366l-2.5-2.5a1.25 1.25 0 0 1-.366-.884v-17.5A3.75 3.75 0 0 1 17.5 35h25a3.75 3.75 0 0 1 3.75 3.75v17.5c0 .331-.132.65-.366.884l-2.5 2.5A1.25 1.25 0 0 1 42.5 60zm-24.483-2.5h23.966l1.767-1.767V38.75a1.25 1.25 0 0 0-1.25-1.25h-25a1.25 1.25 0 0 0-1.25 1.25v16.983l1.767 1.767z"/><path d="M40 45h-2.5v-2.5h-15V45H20v-3.75A1.25 1.25 0 0 1 21.25 40h17.5A1.25 1.25 0 0 1 40 41.25V45zm-1.25 10h-17.5A1.25 1.25 0 0 1 20 53.75v-5a1.25 1.25 0 0 1 1.25-1.25h17.5A1.25 1.25 0 0 1 40 48.75v5A1.25 1.25 0 0 1 38.75 55zM22.5 52.5h15V50h-15v2.5zm7.5-20a16.25 16.25 0 1 1 16.25-16.25A16.269 16.269 0 0 1 30 32.5zm0-30a13.75 13.75 0 1 0 13.75 13.75A13.766 13.766 0 0 0 30 2.5z"/><path d="M27.5 31.25H25v5h2.5v-5zm7.5 0h-2.5v5H35v-5zm3.75-13.75H35V15h2.396a7.5 7.5 0 0 0-14.792 0H25v2.5h-3.75A1.25 1.25 0 0 1 20 16.25a10 10 0 0 1 20 0 1.25 1.25 0 0 1-1.25 1.25z"/><path d="M32.866 24.634l-3.75-3.75A1.25 1.25 0 0 1 28.75 20v-7.5h2.5v6.983l3.384 3.383-1.768 1.768z"/></g><defs><clipPath id="clip0"><path fill="#fff" d="M0 0h60v60H0z"/></clipPath></defs></svg>