<svg width="60" height="60" fill="none" xmlns="http://www.w3.org/2000/svg"><path d="M35 42.5h-2.5v3.75H35V42.5z" fill="#0163b4"/><path d="M36.25 43.75h-5a1.25 1.25 0 0 1-.884-.366l-1.25-1.25a1.25 1.25 0 0 1-.366-.884v-2.5h-7.517c-.33 0-.648-.13-.882-.364l-2.476-2.47a1.25 1.25 0 0 1-.375-.886v-3.72c0-.331.132-.65.366-.884l8.81-8.81 1.768 1.768L20 31.828v2.682l1.75 1.74H30a1.25 1.25 0 0 1 1.25 1.25v3.233l.517.517h3.966l.517-.517V33.75h-7.5a1.25 1.25 0 0 1-.884-.366l-1.25-1.25a1.25 1.25 0 0 1 0-1.768l8.75-8.75 1.768 1.768-7.867 7.866H37.5a1.25 1.25 0 0 1 1.25 1.25v8.75c0 .331-.132.65-.366.884l-1.25 1.25a1.25 1.25 0 0 1-.884.366z" fill="#0163b4"/><path d="M28.75 31.25h-5v2.5h5v-2.5zm5 5H30v2.5h3.75v-2.5zM55 60h-5a1.25 1.25 0 0 1-1.25-1.25v-30h2.5V57.5h2.5V28.75h2.5v30A1.25 1.25 0 0 1 55 60zm-3.75-38.75h-2.5V12.5h-37.5v8.75h-2.5v-10A1.25 1.25 0 0 1 10 10h40a1.25 1.25 0 0 1 1.25 1.25v10zM10 60H5a1.25 1.25 0 0 1-1.25-1.25v-30h2.5V57.5h2.5V28.75h2.5v30A1.25 1.25 0 0 1 10 60z" fill="#0163b4"/><path d="M56.25 21.25h-2.5v-10A1.25 1.25 0 0 1 55 10h2.5V7.5H55a1.25 1.25 0 0 1-1.25-1.25V2.5h-2.5v3.75A1.25 1.25 0 0 1 50 7.5H10a1.25 1.25 0 0 1-1.25-1.25V2.5h-2.5v3.75A1.25 1.25 0 0 1 5 7.5H2.5V10H5a1.25 1.25 0 0 1 1.25 1.25v10h-2.5V12.5h-2.5A1.25 1.25 0 0 1 0 11.25v-5A1.25 1.25 0 0 1 1.25 5h2.5V1.25A1.25 1.25 0 0 1 5 0h5a1.25 1.25 0 0 1 1.25 1.25V5h37.5V1.25A1.25 1.25 0 0 1 50 0h5a1.25 1.25 0 0 1 1.25 1.25V5h2.5A1.25 1.25 0 0 1 60 6.25v5a1.25 1.25 0 0 1-1.25 1.25h-2.5v8.75z" fill="#0163b4"/><path d="M37.5 23.75h-15a1.25 1.25 0 0 1-1.25-1.25v-5a1.25 1.25 0 0 1 1.25-1.25h3.75v-5A1.25 1.25 0 0 1 27.5 10h5a1.25 1.25 0 0 1 1.25 1.25v5h3.75a1.25 1.25 0 0 1 1.25 1.25v5a1.25 1.25 0 0 1-1.25 1.25zm-13.75-2.5h12.5v-2.5H32.5a1.25 1.25 0 0 1-1.25-1.25v-5h-2.5v5a1.25 1.25 0 0 1-1.25 1.25h-3.75v2.5zM60 57.5H0V60h60v-2.5zm-3.75-31.25h-10a2.45 2.45 0 0 1-2.5-2.5v-2.5h-2.5v-2.5h2.5a2.45 2.45 0 0 1 2.5 2.5v2.5h10v2.5zm-42.5 0h-10v-2.5h10v-2.5a2.448 2.448 0 0 1 2.5-2.5h2.5v2.5h-2.5v2.5a2.447 2.447 0 0 1-2.5 2.5z" fill="#0163b4"/></svg>