<svg width="330" height="330" fill="none" xmlns="http://www.w3.org/2000/svg"><path d="M72.634 303.133a6.876 6.876 0 0 1-4.86-2.015l-38.899-38.892a6.873 6.873 0 0 1 0-9.721l27.844-27.83a122.38 122.38 0 0 1-10.492-25.3H6.876A6.872 6.872 0 0 1 0 192.5v-55a6.874 6.874 0 0 1 6.875-6.875h39.352a122.426 122.426 0 0 1 10.492-25.293L28.875 77.495a6.875 6.875 0 0 1 0-9.721l38.899-38.899a6.875 6.875 0 0 1 9.721 0l27.837 27.844a122.295 122.295 0 0 1 25.293-10.492V6.876A6.872 6.872 0 0 1 137.5 0h55a6.874 6.874 0 0 1 6.875 6.875v39.352a122.295 122.295 0 0 1 25.293 10.492l27.837-27.844a6.875 6.875 0 0 1 9.721 0l38.899 38.899a6.874 6.874 0 0 1 0 9.721l-31.577 31.577-9.721-9.721 26.716-26.717-29.177-29.17-26.717 26.716a6.873 6.873 0 0 1-8.449 1.004 108.911 108.911 0 0 0-31.316-12.987 6.875 6.875 0 0 1-5.259-6.682V13.75h-41.25v37.764a6.875 6.875 0 0 1-5.259 6.683A108.911 108.911 0 0 0 107.8 71.184a6.876 6.876 0 0 1-8.45-1.004L72.635 43.464l-29.17 29.17L70.18 99.351a6.875 6.875 0 0 1 1.004 8.442 109.315 109.315 0 0 0-12.987 31.323 6.875 6.875 0 0 1-6.682 5.259H13.75v41.25h37.764a6.874 6.874 0 0 1 6.683 5.266 109.166 109.166 0 0 0 12.987 31.316 6.875 6.875 0 0 1-1.004 8.449l-26.716 26.71 29.17 29.17 26.717-26.716 9.721 9.721-31.577 31.584a6.877 6.877 0 0 1-4.86 2.008z" fill="#0163b4"/><path d="M110 165H96.25A68.823 68.823 0 0 1 165 96.25V110a55.06 55.06 0 0 0-55 55zm137.5 165h-41.25a6.872 6.872 0 0 1-4.861-2.014 6.872 6.872 0 0 1-2.014-4.861v-25.809a72.343 72.343 0 0 1-2.86-1.196l-18.253 18.26a6.875 6.875 0 0 1-9.721 0l-29.171-29.171a6.873 6.873 0 0 1 0-9.721l18.26-18.253c-.419-.956-.818-1.904-1.203-2.86h-25.802a6.872 6.872 0 0 1-4.861-2.014 6.872 6.872 0 0 1-2.014-4.861v-41.25c0-1.823.724-3.572 2.014-4.861a6.872 6.872 0 0 1 4.861-2.014h25.802c.385-.956.784-1.904 1.203-2.86l-18.26-18.253a6.875 6.875 0 0 1 0-9.721l29.171-29.171a6.873 6.873 0 0 1 9.721 0l18.253 18.26c.956-.419 1.904-.818 2.86-1.203v-25.802c0-1.823.724-3.572 2.014-4.861a6.872 6.872 0 0 1 4.861-2.014h41.25c1.823 0 3.572.724 4.861 2.014a6.872 6.872 0 0 1 2.014 4.861v25.802c.956.385 1.904.784 2.86 1.203l18.253-18.26a6.875 6.875 0 0 1 9.721 0l29.171 29.171a6.873 6.873 0 0 1 0 9.721l-18.26 18.253c.419.956.818 1.904 1.203 2.86h25.802c1.823 0 3.572.724 4.861 2.014A6.872 6.872 0 0 1 330 206.25v41.25a6.872 6.872 0 0 1-2.014 4.861 6.872 6.872 0 0 1-4.861 2.014h-25.802c-.385.956-.784 1.904-1.203 2.86l18.26 18.253a6.875 6.875 0 0 1 0 9.721l-29.171 29.171a6.873 6.873 0 0 1-9.721 0l-18.253-18.26c-.956.426-1.904.818-2.86 1.196v25.809a6.872 6.872 0 0 1-2.014 4.861A6.872 6.872 0 0 1 247.5 330zm-34.375-13.75h27.5v-23.781a6.876 6.876 0 0 1 4.813-6.558 62.42 62.42 0 0 0 10.023-4.194 6.877 6.877 0 0 1 8.044 1.23l16.844 16.844 19.442-19.442-16.844-16.844a6.877 6.877 0 0 1-1.23-8.044 61.626 61.626 0 0 0 4.194-10.03 6.875 6.875 0 0 1 6.558-4.813h23.781v-27.493h-23.781a6.876 6.876 0 0 1-6.558-4.813 61.626 61.626 0 0 0-4.194-10.03 6.877 6.877 0 0 1 1.23-8.044l16.851-16.844-19.449-19.449-16.844 16.851a6.874 6.874 0 0 1-8.051 1.223 61.912 61.912 0 0 0-10.016-4.186 6.877 6.877 0 0 1-4.813-6.559V137.5h-27.5v23.781a6.876 6.876 0 0 1-4.813 6.558 62.006 62.006 0 0 0-10.016 4.187 6.872 6.872 0 0 1-8.051-1.224l-16.844-16.85-19.449 19.449 16.85 16.844a6.879 6.879 0 0 1 1.231 8.044 61.626 61.626 0 0 0-4.194 10.03 6.875 6.875 0 0 1-6.558 4.813H137.5v27.5h23.781a6.87 6.87 0 0 1 6.558 4.812 61.6 61.6 0 0 0 4.194 10.031 6.875 6.875 0 0 1-1.231 8.044l-16.843 16.843 19.442 19.443 16.844-16.844a6.877 6.877 0 0 1 8.044-1.23 62.415 62.415 0 0 0 10.023 4.193 6.877 6.877 0 0 1 4.813 6.559v23.767z" fill="#0163b4"/><path d="M226.875 261.25a34.377 34.377 0 0 1-31.758-21.22 34.378 34.378 0 0 1 7.451-37.462 34.378 34.378 0 0 1 52.889 5.209 34.377 34.377 0 0 1 5.793 19.098 34.418 34.418 0 0 1-34.375 34.375zm0-55a20.63 20.63 0 0 0-19.055 12.732 20.62 20.62 0 0 0 4.471 22.477 20.62 20.62 0 0 0 22.477 4.471 20.625 20.625 0 0 0-7.893-39.68z" fill="#0163b4"/></svg>