<?xml version="1.0" encoding="UTF-8"?>
<!DOCTYPE svg PUBLIC "-//W3C//DTD SVG 1.1//EN" "http://www.w3.org/Graphics/SVG/1.1/DTD/svg11.dtd">
<!-- Creator: CorelDRAW 2018 (64-Bit) -->
<svg xmlns="http://www.w3.org/2000/svg" xml:space="preserve" width="130.159mm" height="130.07mm" version="1.1" style="shape-rendering:geometricPrecision; text-rendering:geometricPrecision; image-rendering:optimizeQuality; fill-rule:evenodd; clip-rule:evenodd"
viewBox="0 0 15345.15 15334.65"
 xmlns:xlink="http://www.w3.org/1999/xlink">
 <defs>
  <style type="text/css">
   <![CDATA[
    .fil0 {fill:#0163b4}
   ]]>
  </style>
 </defs>
 <g id="Layer_x0020_1">
  <metadata id="CorelCorpID_0Corel-Layer"/>
  <g id="_2254593691968">
   <path class="fil0" d="M686.17 13525.66l0 -10448.42c0,-264.39 70.38,-467.11 181.88,-629.06 145.41,-211.19 249.66,-250.78 473.1,-369 0,576.64 71.65,890.5 408.47,1213.36l65.54 59.22c801.83,734.47 2208.27,159.91 2208.27,-1023.06l0 -311.89 2308.01 0c0,632.22 32.72,960.03 522.35,1380.18 417.12,357.93 1153.14,366.69 1603.5,28.31l147.95 -132.75c402.27,-385.59 408.49,-749.75 408.49,-1275.74l2308.01 0c0,507.58 -2.32,837.24 362.03,1228.62l367.93 287.04c461.83,256.32 1116.21,169.96 1543.83,-239.92l46.44 -47.12c297.59,-319.65 362.05,-593.02 362.05,-1166.24 389.93,206.32 654.97,434.76 654.97,998.06l0 10479.62c0,683.43 -433.81,1091.62 -1122.82,1091.62l-11727.19 0c-705.81,0 -1122.82,-417.01 -1122.82,-1122.82zm11321.73 -11165.78c0,-565.51 -91.65,-1180.81 178.33,-1474.7 365.29,-397.67 1131.62,-191.49 1131.62,476.64l0 998.06c0,824.69 -1309.95,824.69 -1309.95,0zm-4990.29 0c0,-565.51 -91.65,-1180.81 178.33,-1474.7 239.48,-260.71 682.02,-272.03 938.14,-16.05 288.68,288.5 193.48,916.25 193.48,1490.75 0,824.69 -1309.95,824.69 -1309.95,0zm-4990.29 0c0,-565.51 -91.65,-1180.81 178.33,-1474.7 365.29,-397.67 1131.62,-191.49 1131.62,476.64l0 998.06c0,824.69 -1309.95,824.69 -1309.95,0zm-2027.31 842.12l0 10261.28c0,659.11 170.31,1028.29 506.69,1364.67 336.38,336.38 705.56,506.69 1364.67,506.69l11602.43 0c1163.28,0 1871.36,-708.08 1871.36,-1871.36l0 -10261.28c0,-1633.8 -1257.69,-1745.67 -1324.22,-1857.09 -53.38,-89.39 20.87,-389.9 -288.36,-803.27 -778.47,-1040.62 -2410.84,-465.46 -2410.84,789.01l-2308.01 0c0,-535.4 -310.02,-983.58 -789.67,-1206.46 -526.25,-244.53 -1105.95,-111.84 -1496.06,261.87 -207.34,198.62 -396.55,548.72 -396.55,944.59l-2308.01 0c0,-933.62 -954.76,-1544.48 -1759.64,-1260.61 -258.85,91.3 -503.26,254.29 -642.48,449.14 -296.22,414.57 -212.87,509.39 -281.62,778.82 -57.33,224.72 -182.53,-19.06 -692.25,399.38 -469.89,385.77 -647.44,840.77 -647.44,1504.63z"/>
   <path class="fil0" d="M10011.78 9346.29l1309.95 0 0 1964.93 -1309.95 0 0 -1964.93zm-1996.12 -1341.14l1309.95 0 0 3306.07 -1309.95 0 0 -3306.07zm-1996.12 -1996.12l1309.95 0 0 5302.19 -1309.95 0 0 -5302.19zm-1996.12 2651.09l1309.95 0 0 2651.1 -1309.95 0 0 -2651.1zm1309.95 -2994.18l0 2308.01c-380.23,0 -1657.86,-64.42 -1853.81,79.93 -71.87,52.95 -142.31,152.52 -142.31,263.16l0 3337.25c0,182.23 160.85,343.09 343.08,343.09l7984.47 0c182.23,0 343.09,-160.86 343.09,-343.09l0 -2619.9c0,-201.33 -116.76,-374.27 -311.89,-374.27l-1684.22 0 0 -998.06c0,-182.23 -160.86,-343.08 -343.09,-343.08l-1653.03 0 0 -1653.04c0,-182.23 -160.86,-343.08 -343.09,-343.08l-1996.12 0c-182.23,0 -343.08,160.85 -343.08,343.08z"/>
  </g>
 </g>
</svg>
