<?xml version="1.0" encoding="utf-8"?>
<!-- Generator: Adobe Illustrator 22.0.1, SVG Export Plug-In . SVG Version: 6.00 Build 0)  -->
<svg version="1.1" id="Layer_1" xmlns="http://www.w3.org/2000/svg" xmlns:xlink="http://www.w3.org/1999/xlink" x="0px" y="0px"
	 viewBox="0 0 2920 601" style="enable-background:new 0 0 2920 601;" fill="#fff" xml:space="preserve">
<style type="text/css">
	.st0{fill:#fff;}
	.st1{fill:#043257;}
	.st2{fill:#043257;}
</style>
<path d="M868.7,446c10.6,0,19.5,2.1,26.8,6.3c7.4,4.1,11.1,10.5,11.1,19.2h-27.8c0-2.9-1.3-5-3.9-6.1c-1.8-1-4-1.5-6.8-1.5
	c-7.2,0-10.8,1.7-10.8,5.1c0,1.9,1.3,3.3,3.8,4s6.6,1.6,12.3,2.5c7,1,12.8,2.2,17.5,3.6c4.7,1.3,8.8,3.7,12.3,7.2
	c3.5,3.4,5.3,8.2,5.3,14.4c0,10.1-3.8,17.3-11.4,21.6c-7.5,4.3-17.4,6.5-29.6,6.5c-7,0-13.6-1-19.8-2.8c-6.2-2-11.3-5-15.1-9.2
	c-3.9-4.1-5.9-9.3-5.9-15.6h27.8v0.6c0.1,3.4,1.5,5.8,4.2,7.2c2.8,1.3,5.8,2,8.8,2c8.3,0,12.5-2,12.5-5.9c0-2-1.3-3.4-3.9-4.3
	c-2.6-0.9-6.9-1.8-12.8-2.8c-7.1-1.2-13-2.5-17.6-3.9c-4.5-1.4-8.4-3.8-11.8-7c-3.4-3.4-5.1-8.1-5.1-14.1c0-9.7,3.6-16.6,10.9-20.7
	C847.3,448,856.8,446,868.7,446z M963.6,446c14.5,0,25.5,3.4,33.2,10.2c7.7,6.8,11.6,17.2,11.6,31.2v5.1h-59.4
	c0,5.7,1.3,10,3.8,12.9c2.6,2.9,6.7,4.3,12.2,4.3c5,0,8.7-1,11-3.2c2.4-2.1,3.6-4.9,3.6-8.4h29c0,9.6-3.6,17.1-11,22.5
	c-7.3,5.4-18,8.1-32,8.1c-14.7,0-26.1-3.4-34.2-10.2c-8.1-6.9-12.2-17.3-12.2-31.2c0-13.6,4-23.9,11.8-30.9
	C938.8,449.5,949.7,446,963.6,446z M964.8,465c-9.4,0-14.7,4.5-15.8,13.4h29.1c0-4.1-1.2-7.4-3.6-9.8C972.3,466.3,969,465,964.8,465
	z M1070.9,445.9c2.3,0,4.3,0.3,6.2,0.9c1.8,0.5,2.7,0.8,2.7,0.9v25.1h-9.6c-6.2,0-10.7,1.6-13.5,4.8c-2.7,3.2-4.1,8-4.1,14.3V527
	h-29.8v-79.2h24.4l2,12c1.8-4.6,4.7-8,8.5-10.3C1061.6,447,1066,445.9,1070.9,445.9z M1119,527l-30-79.2h32.1l14.5,49.4h1.1
	l14.6-49.4h29.4l-30.3,79.2H1119z M1190.8,438.5v-20.3h29.8v20.3H1190.8z M1190.8,527v-79.2h29.8V527H1190.8z M1280.6,446
	c13,0,23.5,2.8,31.5,8.4c8.1,5.5,12.2,14,12.2,25.4h-29c0-9-4.9-13.5-14.7-13.5c-9.8,0-14.7,5.6-14.7,17v8.5
	c0,11.2,5.1,16.8,15.3,16.8s15.3-4.6,15.3-13.8h27.8c0,11.5-4.1,20-12.2,25.7c-8,5.6-18.5,8.4-31.5,8.4c-13.9,0-24.8-3.5-32.7-10.5
	c-7.9-7-11.8-17.3-11.8-30.9c0-13.6,4-23.9,11.8-30.9C1255.8,449.5,1266.7,446,1280.6,446z M1380.7,446c14.5,0,25.6,3.4,33.2,10.2
	c7.7,6.8,11.6,17.2,11.6,31.2v5.1H1366c0,5.7,1.3,10,3.8,12.9c2.6,2.9,6.7,4.3,12.2,4.3c5,0,8.7-1,10.9-3.2c2.4-2.1,3.6-4.9,3.6-8.4
	h29c0,9.6-3.7,17.1-11,22.5c-7.3,5.4-17.9,8.1-31.9,8.1c-14.7,0-26.1-3.4-34.2-10.2c-8.1-6.9-12.2-17.3-12.2-31.2
	c0-13.6,3.9-23.9,11.8-30.9S1366.8,446,1380.7,446z M1381.9,465c-9.4,0-14.7,4.5-15.8,13.4h29.1c0-4.1-1.2-7.4-3.6-9.8
	C1389.3,466.3,1386.1,465,1381.9,465z"/>
<path class="st0" d="M807.9,347V103.9c0-5.3,1.8-9.8,5.5-13.5c3.6-3.6,8-5.5,13.1-5.5h109.2c56.5,0,97.6,11.3,123.2,34
	c25.8,22.5,38.7,57.9,38.7,106.3c0,48.2-12.9,83.5-38.7,106.1c-25.7,22.5-66.7,33.8-123.2,33.8H826.5c-5.1,0-9.4-1.7-13.1-5.1
	C809.8,356.4,807.9,352.1,807.9,347z M881.6,309.7h52c35,0,58.9-6.4,71.5-19.1s19-34.6,19-65.4c0-31-6.3-52.9-19-65.6
	c-12.6-12.9-36.5-19.3-71.5-19.3h-52V309.7z M1137.6,347V103.5c0-5.1,1.8-9.4,5.5-13.1c3.6-3.6,8-5.5,13.1-5.5h36.3
	c5.3,0,9.8,1.8,13.3,5.5c3.7,3.6,5.5,8,5.5,13.1v243.2c0,5.1-1.9,9.4-5.7,13.1c-3.7,3.5-8,5.3-13.1,5.3h-36.3
	c-5.1,0-9.4-1.7-13.1-5.1C1139.4,356.4,1137.6,352.1,1137.6,347z M1267.3,346.3V103.1c0-5.1,1.8-9.4,5.5-12.9
	c3.7-3.5,8-5.3,13.1-5.3h225.2c5.1,0,9.4,1.8,12.9,5.5c3.6,3.6,5.5,8,5.5,13.1v18.4c0,5.1-1.8,9.4-5.5,13.1
	c-3.5,3.5-7.8,5.3-12.9,5.3h-170.1V197h146.5c5.1,0,9.4,1.8,12.9,5.5c3.6,3.5,5.5,7.8,5.5,12.9v18.4c0,5.1-1.8,9.4-5.5,13.1
	c-3.5,3.5-7.8,5.3-12.9,5.3h-146.5v57.6h169.7c4.9,0,9.2,1.8,12.7,5.3s5.3,7.8,5.3,12.9v18.8c0,5.1-1.8,9.4-5.5,13.1
	c-3.6,3.5-8,5.3-13.1,5.3h-224.2c-5.1,0-9.4-1.8-13.1-5.3C1269.1,356.1,1267.3,351.6,1267.3,346.3z M1541.3,121.8v-18.4
	c0-5.3,1.8-9.8,5.3-13.3c3.5-3.5,7.9-5.3,13.3-5.3h247.8c5.3,0,9.8,1.8,13.3,5.3c3.5,3.5,5.3,7.9,5.3,13.3v18.4
	c0,5.3-1.8,9.8-5.3,13.3c-3.5,3.4-8,5.1-13.3,5.1h-87.1V347c0,5.1-1.8,9.4-5.5,12.9c-3.5,3.4-7.8,5.1-12.9,5.1h-36.9
	c-5.1,0-9.4-1.7-13.1-5.1c-3.5-3.5-5.3-7.8-5.3-12.9V140.2h-87.1c-5.3,0-9.8-1.7-13.3-5.1C1543.1,131.6,1541.3,127.2,1541.3,121.8z
	 M2149.1,356.6c0,5.6-3.3,8.4-10,8.4h-46.9c-4.9,0-10.4-1.8-16.4-5.3c-5.9-3.6-10.3-8-13.5-13.1l-33.2-52
	c-13.7-21.4-30.2-32-49.6-32h-47.7v84c0,5.1-1.8,9.4-5.5,13.1c-3.5,3.5-7.8,5.3-12.9,5.3h-36.7c-5.1,0-9.4-1.8-13.1-5.3
	c-3.7-3.6-5.5-8-5.5-13.1V103.5c0-5.1,1.8-9.4,5.3-13.1c3.5-3.6,7.8-5.5,12.9-5.5h161.1c29.8,0,54.2,8,73.2,24
	c19.1,16,28.7,37.6,28.7,64.8c0,37.9-24.5,61.7-73.6,71.3c7.8,2.9,15,7.8,21.7,14.8c6.6,6.9,14.3,17,22.8,30.3l35.6,56.4
	C2148.1,350.3,2149.1,353.6,2149.1,356.6z M1931.9,207.4h83.2c13.4,0,25.2-2.7,35.3-8c10.3-5.3,15.4-13.9,15.4-25.6
	s-5.1-20.2-15.4-25.6c-10.2-5.3-21.9-8-35.3-8h-83.2V207.4z M2181.8,347V103.5c0-5.1,1.8-9.4,5.5-13.1c3.6-3.6,8-5.5,13.1-5.5h36.3
	c5.3,0,9.8,1.8,13.3,5.5c3.7,3.6,5.5,8,5.5,13.1v243.2c0,5.1-1.9,9.4-5.7,13.1c-3.6,3.5-8,5.3-13.1,5.3h-36.3
	c-5.1,0-9.4-1.7-13.1-5.1C2183.6,356.4,2181.8,352.1,2181.8,347z M2331.6,332c-24.1-23-36.1-58.7-36.1-106.8c0-48.3,12-84,36.1-107
	c24.2-23.2,60.5-34.8,108.8-34.8h43.6c29.6,0,55.7,7.7,78.3,23c22.8,15.4,34.2,36.4,34.2,63.1c0,7.7-2.3,13.2-6.8,16.6
	c-4.6,3.3-9,4.9-13.3,4.9h-23.2c-12,0-21.3-7.2-27.9-21.5c-9.6-20.6-25.7-30.9-48.1-30.9h-34.8c-28.5,0-47.9,6.1-58,18.4
	c-10.2,12.2-15.2,34.9-15.2,68s5.1,55.8,15.2,68.2c10.1,12.2,29.5,18.4,58,18.4h38.9c22.4,0,38.4-10.3,47.9-30.9
	c6.6-14.5,16-21.7,28.1-21.7h23.2c6.1,0,10.9,2.3,14.5,6.8c3.6,4.6,5.5,9.5,5.5,14.8c0,26.7-11.3,47.7-34,63.1
	c-22.7,15.2-48.8,22.9-78.3,22.9h-47.7C2392,366.6,2355.8,355,2331.6,332z M2638.4,346.6V103.5c0-5.1,1.8-9.4,5.5-13.1
	c3.6-3.6,8.1-5.5,13.5-5.5h36.3c5.1,0,9.4,1.8,12.9,5.5c3.6,3.6,5.5,8,5.5,13.1v87.9h134.4v-87.9c0-5.1,1.8-9.4,5.5-13.1
	c3.6-3.6,8-5.5,13.1-5.5h36.3c5.3,0,9.8,1.8,13.3,5.5c3.6,3.6,5.5,8,5.5,13.1v243.2c0,5.1-1.9,9.4-5.7,13.1c-3.6,3.5-8,5.3-13.1,5.3
	H2865c-5.1,0-9.4-1.7-13.1-5.1c-3.6-3.5-5.5-7.8-5.5-12.9V246.6H2712V347c0,5.1-1.8,9.4-5.5,12.9c-3.5,3.4-7.8,5.1-12.9,5.1h-36.3
	c-5.1,0-9.5-1.8-13.3-5.3C2640.3,356.1,2638.4,351.7,2638.4,346.6z"/>
<path class="st0" d="M200,0C89.5,0,0,89.5,0,200v201c0,110.5,89.5,200,200,200h299c110.5,0,200-89.5,200-200V200
	C699,89.5,609.5,0,499,0H200z"/>
<path class="st1" d="M223,92.1c-15.2,2.1-33.5,4.6-56.8,35.8c-14,18.8-15.6,48.5-8.4,69.1c24.6-9.6,55.4,0,53.2,36.1
	c-2.6,44.5-73.2,36-73.2,0c-4,25.7,4.3,83,70.6,83c84.8,0,99.6-87.8,37.3-129c-48.4-36.6-37.3-70.6-15.9-96
	C227.6,91.4,225.4,91.7,223,92.1z"/>
<path class="st2" d="M569.5,382c-10,21-23.8,39.1-41.6,54.2c-17.8,15.1-38.9,26.9-63.5,35.2c-24.6,8.3-51.4,12.5-80.6,12.5l-179.7,0
	c-23.4,0-42.6-19.7-43.3-44.1h0v-61h103.5v14.3h119.5c13.9,0,26.9-2.2,38.8-6.5c11.9-4.3,22.4-10.3,31.4-17.7s15.9-16.4,20.9-26.9
	c5-10.4,7.5-21.7,7.5-33.9c0-12.5-2.5-23.9-7.5-34.2c-5-10.3-11.8-19-20.4-26.3c-8.6-7.3-19-13-31.1-17c-12.1-4-25.3-6-39.6-6
	l-82.4-3.2c-10.1-27.8-26.6-42.8-40.6-55.7c-12.3-11.3-22.8-20.8-25.4-35.8c0,0,116-3.6,150,0c34,3.6,54,9.5,78.5,18.6
	c24.5,9,45.7,21.5,63.5,37.3c17.8,15.8,31.7,34.6,41.8,56.3c10.1,21.7,15.2,45.3,15.2,70.7C584.5,337.9,579.5,361,569.5,382z"/>
</svg>
