<?xml version="1.0" encoding="utf-8"?>
<!-- Generator: Adobe Illustrator 22.0.1, SVG Export Plug-In . SVG Version: 6.00 Build 0)  -->
<svg version="1.1" id="Layer_1" xmlns="http://www.w3.org/2000/svg" xmlns:xlink="http://www.w3.org/1999/xlink" x="0px" y="0px"
	 viewBox="0 0 142 168.2" style="enable-background:new 0 0 142 168.2;" xml:space="preserve">
<style type="text/css">
	.st0{fill-rule:evenodd;clip-rule:evenodd;fill:#FFFC05;}
</style>
<g>
	<path class="st0" d="M0,24.4v72.8c0,11.7,5.8,22.5,12.1,29.8c5.7,6.6,5,5.8,12,12.4c1.1,1,1.5,1.2,2.6,2.2
		c7,6.6,38.4,26.7,44.3,26.7c5,0,29.4-15.4,34.2-18.9c1.8-1.3,3.3-2.5,5-3.7c1.7-1.3,3.5-2.5,5.1-4c6.6-6.3,5.4-3.7,13.8-13.6
		l1.4-1.6c5.8-7.1,11.5-17.4,11.5-29.1V24.4c0-1.1-0.1-1.2-0.6-2.1l-1.4-1.6c-0.9-0.7-3-1.4-4.4-1.7c-7.8-2-19.7-6-27.5-8.2
		c-5.9-1.6-12.2-3.9-18-5.5C86.2,4.2,74.3,0,70.6,0c-2,0-7.3,2-9.2,2.5C47.8,6.3,28.2,13.1,15.8,16.2C13.9,16.7,3,19.6,1.5,21.1
		C0.6,22,0,23,0,24.4L0,24.4z"/>
</g>
</svg>
